#tb 0: 1/25
#media_type 0: video
#codec_id 0: rawvideo
#dimensions 0: 832x480
#sar 0: 0/1
0,          0,          0,        1,  1198080, 0xcdf458b1
0,          1,          1,        1,  1198080, 0xcdf458b1
0,          2,          2,        1,  1198080, 0xcdf458b1
0,          3,          3,        1,  1198080, 0x41525e2e
0,          4,          4,        1,  1198080, 0xb14ee022
0,          5,          5,        1,  1198080, 0xd3a3ac98
0,          6,          6,        1,  1198080, 0xbe9d1fe7
0,          7,          7,        1,  1198080, 0x89240c24
0,          8,          8,        1,  1198080, 0x8e4a369f
0,          9,          9,        1,  1198080, 0x365e7c45
0,         10,         10,        1,  1198080, 0xaadf6a8e
0,         11,         11,        1,  1198080, 0x157383d8
0,         12,         12,        1,  1198080, 0x9474c9d2
0,         13,         13,        1,  1198080, 0xb89fc116
0,         14,         14,        1,  1198080, 0xf90850c5
0,         15,         15,        1,  1198080, 0x55a23689
0,         16,         16,        1,  1198080, 0x070da4d3
0,         17,         17,        1,  1198080, 0x13abf756
0,         18,         18,        1,  1198080, 0x2753e658
0,         19,         19,        1,  1198080, 0xbf102bb8
0,         20,         20,        1,  1198080, 0xc7acddc7
0,         21,         21,        1,  1198080, 0x91509ad7
0,         22,         22,        1,  1198080, 0x5969c61a
0,         23,         23,        1,  1198080, 0xe61abb51
0,         24,         24,        1,  1198080, 0xe33e4e60
0,         25,         25,        1,  1198080, 0x01844a93
0,         26,         26,        1,  1198080, 0xcd26ae51
0,         27,         27,        1,  1198080, 0xd07836ea
0,         28,         28,        1,  1198080, 0x749ea687
0,         29,         29,        1,  1198080, 0xc011e58c
0,         30,         30,        1,  1198080, 0x846a7dc8
0,         31,         31,        1,  1198080, 0x37482c20
0,         32,         32,        1,  1198080, 0xae4d23db
0,         33,         33,        1,  1198080, 0x4a0f4b64
0,         34,         34,        1,  1198080, 0x1d980362
0,         35,         35,        1,  1198080, 0x795c6ab4
0,         36,         36,        1,  1198080, 0xc7795d9a
0,         37,         37,        1,  1198080, 0xa06d6021
0,         38,         38,        1,  1198080, 0xb9196829
0,         39,         39,        1,  1198080, 0xb889906d
0,         40,         40,        1,  1198080, 0x3a2be42d
0,         41,         41,        1,  1198080, 0xbba44051
0,         42,         42,        1,  1198080, 0xa5016ef4
0,         43,         43,        1,  1198080, 0x95abefc4
0,         44,         44,        1,  1198080, 0x651ff144
0,         45,         45,        1,  1198080, 0x5f070b07
0,         46,         46,        1,  1198080, 0x1236d67a
0,         47,         47,        1,  1198080, 0xcc45a45b
0,         48,         48,        1,  1198080, 0x94b44982
